<svg width="168" height="140" viewBox="0 0 168 140" fill="none" xmlns="http://www.w3.org/2000/svg">
<path d="M104.985 1.8119C83.1118 -1.01767 65.1843 9.75877 45.8813 27.9001C30.2173 42.6098 4.77817 43.5798 3.27586 67.0324C1.45306 95.5823 48.7657 97.8767 62.7005 111.677C99.7441 148.468 147.704 143.591 160.097 109.817C171.134 79.7554 153.166 65.7548 146.83 46.4093C137.662 18.5217 128.068 4.79532 104.985 1.8119Z" fill="black" fill-opacity="0.54"/>
<path d="M74.3043 86.4929L52.6578 113.651C51.497 115.097 49.8128 116.023 47.9726 116.228C46.1325 116.434 44.286 115.902 42.836 114.748V114.748C41.3921 113.585 40.4659 111.897 40.2595 110.053C40.0531 108.208 40.5833 106.356 41.7343 104.902L63.3809 77.75" fill="white"/>
<path d="M93.3938 97.3157C113.023 97.3157 128.935 81.3739 128.935 61.7086C128.935 42.0434 113.023 26.1016 93.3938 26.1016C73.7649 26.1016 57.8525 42.0434 57.8525 61.7086C57.8525 81.3739 73.7649 97.3157 93.3938 97.3157Z" fill="white"/>
<path d="M77.5295 93.0287L55.8896 120.181C54.7287 121.628 53.0431 122.555 51.2014 122.761C49.3596 122.967 47.5115 122.433 46.0612 121.278V121.278C44.6167 120.114 43.6907 118.426 43.4855 116.581C43.2803 114.735 43.8127 112.884 44.9662 111.431L68.1084 82.3125" fill="white"/>
<path d="M62.0862 31.1247C56.8283 37.6981 53.9549 45.8657 53.9366 54.2892C53.9183 62.7128 56.7564 70.8928 61.9856 77.489C67.2149 84.0852 74.5254 88.7064 82.7192 90.5955C90.9131 92.4846 99.5044 91.5295 107.086 87.8868C114.667 84.244 120.788 78.1296 124.447 70.5454C128.106 62.9611 129.085 54.3568 127.224 46.1421C125.362 37.9275 120.772 30.5897 114.203 25.331C107.635 20.0723 99.4787 17.2046 91.0707 17.1977C85.5027 17.1721 80.0015 18.4122 74.9811 20.8245C69.9606 23.2369 65.5517 26.7586 62.0862 31.1247V31.1247ZM91.0707 20.2346C98.774 20.2476 106.245 22.8805 112.259 27.7022C118.274 32.524 122.477 39.2488 124.179 46.7756C125.881 54.3024 124.981 62.1852 121.628 69.1332C118.275 76.0812 112.666 81.6827 105.721 85.0205C98.7752 88.3583 90.9042 89.2346 83.3966 87.506C75.8891 85.7773 69.1898 81.5462 64.3957 75.5053C59.6017 69.4644 56.9969 61.9718 57.0079 54.2542C57.019 46.5367 59.6451 39.0516 64.4565 33.0245C67.6506 29.0287 71.7013 25.8043 76.3084 23.5903C80.9155 21.3763 85.9609 20.2294 91.0707 20.2346V20.2346Z" fill="#BCBCBC"/>
<path d="M47.1765 117.424C45.6467 117.417 44.1497 116.979 42.8569 116.16C41.5641 115.34 40.5278 114.172 39.8666 112.79C39.2054 111.408 38.946 109.867 39.1182 108.345C39.2903 106.822 39.8871 105.378 40.8401 104.179L62.48 77.0273L64.2828 78.4655L42.6362 105.624C41.7076 106.84 41.2916 108.372 41.4774 109.892C41.6632 111.412 42.4359 112.798 43.63 113.754C44.824 114.709 46.3443 115.158 47.8648 115.004C49.3853 114.85 50.7849 114.105 51.7636 112.929L73.4035 85.7769L75.2063 87.2151L53.5597 114.387C52.8926 115.225 52.0666 115.922 51.1292 116.439C50.1918 116.956 49.1616 117.281 48.098 117.397C47.7915 117.423 47.4839 117.432 47.1765 117.424Z" fill="#BCBCBC"/>
<path d="M87.7947 52.8321L77.4717 61.0527L79.2623 63.3097L89.5854 55.089L87.7947 52.8321Z" fill="#BCBCBC"/>
<path d="M79.2629 52.8287L77.4727 55.0859L87.7971 63.3048L89.5874 61.0475L79.2629 52.8287Z" fill="#BCBCBC"/>
<path d="M87.9188 79.6018C87.5592 79.601 87.2088 79.4879 86.9163 79.2783C86.6239 79.0686 86.4039 78.7728 86.2871 78.432C86.1703 78.0913 86.1625 77.7225 86.2646 77.3771C86.3668 77.0316 86.5739 76.7267 86.8572 76.5047C89.5988 74.4218 92.9333 73.2717 96.3736 73.2224C99.814 73.173 103.18 74.227 105.98 76.2304C106.303 76.513 106.509 76.9061 106.558 77.3329C106.607 77.7596 106.495 78.1893 106.245 78.538C105.995 78.8867 105.623 79.1293 105.204 79.2184C104.784 79.3075 104.347 79.2367 103.977 79.0199C101.834 77.4883 99.2647 76.6694 96.6322 76.6786C93.8805 76.6622 91.2011 77.5609 89.0138 79.2339C88.702 79.4791 88.3152 79.6091 87.9188 79.6018V79.6018Z" fill="#BCBCBC"/>
<path d="M113.468 52.836L103.145 61.0566L104.935 63.3136L115.258 55.093L113.468 52.836Z" fill="#BCBCBC"/>
<path d="M104.936 52.8267L103.146 55.084L113.47 63.3028L115.26 61.0456L104.936 52.8267Z" fill="#BCBCBC"/>
<path d="M73.5772 47.9354C73.261 47.9343 72.9511 47.8464 72.6813 47.6813C72.4115 47.5162 72.192 47.2801 72.0468 46.9987C71.9015 46.7173 71.8361 46.4014 71.8575 46.0854C71.8789 45.7693 71.9864 45.4652 72.1683 45.2061C72.5222 44.7044 72.8828 44.2161 73.27 43.7345C78.2166 37.5095 85.4144 33.4905 93.3008 32.55C93.5257 32.5223 93.7539 32.5393 93.9722 32.6C94.1906 32.6606 94.3949 32.7638 94.5734 32.9036C94.752 33.0433 94.9013 33.2169 95.0129 33.4145C95.1245 33.6121 95.1961 33.8298 95.2238 34.0551C95.2514 34.2804 95.2344 34.509 95.1739 34.7277C95.1133 34.9465 95.0104 35.1512 94.8709 35.3301C94.7314 35.509 94.5581 35.6586 94.3608 35.7704C94.1636 35.8821 93.9464 35.9539 93.7215 35.9816C86.7379 36.823 80.3665 40.3871 75.9875 45.9018C75.647 46.3232 75.3199 46.758 75.0127 47.1995C74.8515 47.4302 74.6364 47.6178 74.3862 47.7461C74.136 47.8744 73.8582 47.9393 73.5772 47.9354V47.9354Z" fill="white"/>
</svg>
