<svg width="35" height="30" viewBox="0 0 35 30" fill="none" xmlns="http://www.w3.org/2000/svg">
<path d="M16.0892 24.3157L33.5834 11.6459C33.662 11.589 33.699 11.512 33.6898 11.4349L32.5102 1.34066C32.4779 1.07943 32.1957 0.875131 31.8349 0.851687L17.8932 0.00100812C17.7868 -0.00569014 17.6758 0.0211027 17.6017 0.0780379L0.107501 12.7444C0.0386327 12.7948 0 12.8628 0 12.9337C0 13.0045 0.0386327 13.0725 0.107501 13.1229L15.5665 24.3157C15.7098 24.4229 15.9458 24.4229 16.0892 24.3157ZM21.7648 6.45143C22.6298 5.82514 24.036 5.82514 24.9057 6.45143C25.7707 7.07772 25.7707 8.09585 24.9057 8.72549C24.0407 9.35178 22.6345 9.35178 21.7648 8.72549C20.8998 8.0992 20.8998 7.08107 21.7648 6.45143ZM34.8925 15.9261L33.0607 14.6032C32.9911 14.5533 32.8972 14.5254 32.7993 14.5254C32.7015 14.5254 32.6075 14.5533 32.538 14.6032L15.7931 26.7036L4.80254 18.7662C4.73299 18.7163 4.63907 18.6883 4.54119 18.6883C4.44332 18.6883 4.34939 18.7163 4.27984 18.7662L2.44808 20.0891C2.37922 20.1394 2.34058 20.2074 2.34058 20.2783C2.34058 20.3492 2.37922 20.4172 2.44808 20.4675L13.6977 28.5992L15.5294 29.9221C15.6728 30.026 15.9087 30.026 16.0521 29.9221L34.8925 16.3046C35.0358 16.2007 35.0358 16.0299 34.8925 15.9261Z" fill="white"/>
</svg>
