<svg width="17" height="22" viewBox="0 0 17 22" fill="none" xmlns="http://www.w3.org/2000/svg">
<path d="M10.2171 0H2.80189C2.05878 0 1.34611 0.289731 0.820653 0.805456C0.295198 1.32118 0 2.02065 0 2.75V19.25C0 19.9793 0.295198 20.6788 0.820653 21.1945C1.34611 21.7103 2.05878 22 2.80189 22H14.0094C14.7525 22 15.4652 21.7103 15.9907 21.1945C16.5161 20.6788 16.8113 19.9793 16.8113 19.25V6.47212C16.8112 6.10748 16.6636 5.7578 16.4008 5.5L11.2075 0.402875C10.9449 0.144995 10.5886 7.78764e-05 10.2171 0V0ZM10.5071 4.8125V2.0625L14.7099 6.1875H11.908C11.5365 6.1875 11.1801 6.04263 10.9174 5.78477C10.6547 5.52691 10.5071 5.17717 10.5071 4.8125ZM9.10613 9.625V11.6875H11.2075C11.3933 11.6875 11.5715 11.7599 11.7029 11.8889C11.8342 12.0178 11.908 12.1927 11.908 12.375C11.908 12.5573 11.8342 12.7322 11.7029 12.8611C11.5715 12.9901 11.3933 13.0625 11.2075 13.0625H9.10613V15.125C9.10613 15.3073 9.03233 15.4822 8.90097 15.6111C8.76961 15.7401 8.59144 15.8125 8.40566 15.8125C8.21988 15.8125 8.04172 15.7401 7.91035 15.6111C7.77899 15.4822 7.70519 15.3073 7.70519 15.125V13.0625H5.60377C5.418 13.0625 5.23983 12.9901 5.10847 12.8611C4.9771 12.7322 4.9033 12.5573 4.9033 12.375C4.9033 12.1927 4.9771 12.0178 5.10847 11.8889C5.23983 11.7599 5.418 11.6875 5.60377 11.6875H7.70519V9.625C7.70519 9.44266 7.77899 9.2678 7.91035 9.13886C8.04172 9.00993 8.21988 8.9375 8.40566 8.9375C8.59144 8.9375 8.76961 9.00993 8.90097 9.13886C9.03233 9.2678 9.10613 9.44266 9.10613 9.625Z" fill="white"/>
</svg>
