<svg width="22" height="27" viewBox="0 0 22 27" fill="none" xmlns="http://www.w3.org/2000/svg">
<path d="M20.4637 18.6625C20.4057 18.483 20.2965 18.3359 20.1638 18.2188C20.1744 17.9332 20.1812 17.6459 20.1812 17.3558C20.1812 10.9715 17.625 5.56464 14.0937 3.71034C14.1463 3.48978 14.1773 3.26028 14.1773 3.02286C14.1773 1.43969 12.9366 0.15625 11.4062 0.15625C9.87583 0.15625 8.63521 1.43969 8.63521 3.02286C8.63521 3.26028 8.66613 3.48978 8.71873 3.71034C5.1874 5.56464 2.63124 10.9715 2.63124 17.3558C2.63124 17.6459 2.63804 17.9332 2.64873 18.2188C2.51601 18.3359 2.40671 18.483 2.34871 18.6625L1.03579 22.7249C0.823181 23.3827 1.29651 24.0625 1.96718 24.0625H8.36743C8.75759 25.4176 9.96962 26.4062 11.4062 26.4062C12.8429 26.4062 14.0549 25.4176 14.445 24.0625H20.8453C21.516 24.0625 21.9893 23.3827 21.7767 22.7249L20.4637 18.6625ZM9.13686 4.5624L9.79133 4.21872L9.61559 3.4815C9.57742 3.32154 9.55886 3.17148 9.55886 3.02286C9.55886 1.96909 10.3876 1.11179 11.4062 1.11179C12.4249 1.11179 13.2536 1.96909 13.2536 3.02286C13.2536 3.17148 13.235 3.32154 13.1969 3.4815L13.0211 4.21872L13.6756 4.5624C16.9622 6.28818 19.2575 11.549 19.2575 17.3558C19.2575 17.5519 19.2548 17.7505 19.2493 17.9507H3.56311C3.55772 17.7505 3.55493 17.5519 3.55493 17.3558C3.55493 11.549 5.85029 6.28818 9.13686 4.5624ZM11.4062 25.4687C10.479 25.4687 9.68002 24.8896 9.32976 24.0625H13.4827C13.1324 24.8896 12.3335 25.4687 11.4062 25.4687ZM20.9069 23.0924C20.8842 23.125 20.8569 23.125 20.8453 23.125H14.5781H8.23437H1.96718C1.95554 23.125 1.92826 23.125 1.90556 23.0924C1.88304 23.06 1.8916 23.0335 1.89528 23.0222L3.20821 18.9597C3.21859 18.9278 3.24742 18.9062 3.28013 18.9062H19.5323C19.565 18.9062 19.5939 18.9278 19.6043 18.9597L20.9172 23.0222C20.9209 23.0335 20.9294 23.06 20.9069 23.0924Z" fill="black"/>
</svg>
