<svg width="23" height="24" viewBox="0 0 23 24" fill="none" xmlns="http://www.w3.org/2000/svg">
<g filter="url(#filter0_d_884_301)">
<path fill-rule="evenodd" clip-rule="evenodd" d="M10.1249 0.727893C10.1251 0.576226 10.0808 0.428311 9.99838 0.304849C9.91596 0.181386 9.79947 0.0885541 9.66523 0.0393442C9.53099 -0.00986577 9.38571 -0.0129912 9.24973 0.0304053C9.11374 0.0738018 8.99385 0.161549 8.90684 0.281366L4.14338 6.82656C4.05045 6.95422 4 7.11134 4 7.27308C4 7.43482 4.05045 7.59195 4.14338 7.71961L8.90684 14.2648C8.99385 14.3846 9.11374 14.4724 9.24973 14.5158C9.38571 14.5592 9.53099 14.556 9.66523 14.5068C9.79947 14.4576 9.91596 14.3648 9.99838 14.2413C10.0808 14.1179 10.1251 13.9699 10.1249 13.8183V10.9166C13.7853 10.998 15.5437 11.7405 16.427 12.5478C17.2667 13.315 17.4205 14.2175 17.5804 15.1629L17.622 15.4066C17.6525 15.5809 17.7416 15.7373 17.8725 15.8463C18.0034 15.9554 18.167 16.0095 18.3327 15.9986C18.4983 15.9877 18.6545 15.9125 18.7719 15.7871C18.8893 15.6618 18.9597 15.4949 18.97 15.3179C19.0864 13.3194 18.9115 10.4235 17.5906 8.00105C16.3086 5.64988 13.9997 3.84195 10.1249 3.65287V0.727893Z" fill="#2F2F2F"/>
</g>
<defs>
<filter id="filter0_d_884_301" x="0" y="0" width="23" height="24" filterUnits="userSpaceOnUse" color-interpolation-filters="sRGB">
<feFlood flood-opacity="0" result="BackgroundImageFix"/>
<feColorMatrix in="SourceAlpha" type="matrix" values="0 0 0 0 0 0 0 0 0 0 0 0 0 0 0 0 0 0 127 0" result="hardAlpha"/>
<feOffset dy="4"/>
<feGaussianBlur stdDeviation="2"/>
<feComposite in2="hardAlpha" operator="out"/>
<feColorMatrix type="matrix" values="0 0 0 0 0 0 0 0 0 0 0 0 0 0 0 0 0 0 0.25 0"/>
<feBlend mode="normal" in2="BackgroundImageFix" result="effect1_dropShadow_884_301"/>
<feBlend mode="normal" in="SourceGraphic" in2="effect1_dropShadow_884_301" result="shape"/>
</filter>
</defs>
</svg>
