<svg width="13" height="17" viewBox="0 0 13 17" fill="none" xmlns="http://www.w3.org/2000/svg">
<path d="M12.1877 15.2951H0.815701C0.600269 15.2951 0.393661 15.3849 0.241327 15.5448C0.0889941 15.7046 0.003414 15.9215 0.003414 16.1475C0.003414 16.3736 0.0889941 16.5905 0.241327 16.7503C0.393661 16.9102 0.600269 17 0.815701 17H12.1877C12.4031 17 12.6098 16.9102 12.7621 16.7503C12.9144 16.5905 13 16.3736 13 16.1475C13 15.9215 12.9144 15.7046 12.7621 15.5448C12.6098 15.3849 12.4031 15.2951 12.1877 15.2951ZM0.815701 13.5902H0.888806L4.27604 13.2662C4.64709 13.2274 4.99413 13.0559 5.25891 12.7803L12.5695 5.10816C12.8532 4.79357 13.0066 4.37377 12.9959 3.94074C12.9853 3.50771 12.8115 3.09678 12.5126 2.79799L10.287 0.46224C9.99648 0.175894 9.61584 0.0115931 9.21745 0.000590549C8.81906 -0.010412 8.43071 0.132652 8.12628 0.402567L0.815701 8.07472C0.553142 8.3526 0.38966 8.7168 0.352697 9.1062L0.003414 12.661C-0.00752834 12.7858 0.00790946 12.9117 0.0486268 13.0296C0.0893442 13.1474 0.154339 13.2544 0.238977 13.3429C0.314877 13.4219 0.404892 13.4845 0.503859 13.5269C0.602826 13.5693 0.708798 13.5908 0.815701 13.5902ZM9.15788 1.65569L11.3754 3.98291L9.75085 5.64521L7.57392 3.36061L9.15788 1.65569Z" fill="#2F2F2F"/>
</svg>
