<svg width="15" height="16" viewBox="0 0 15 16" fill="none" xmlns="http://www.w3.org/2000/svg">
<path fill-rule="evenodd" clip-rule="evenodd" d="M6.12493 0.727893C6.12506 0.576226 6.08081 0.428311 5.99838 0.304849C5.91595 0.181386 5.79947 0.0885541 5.66523 0.0393442C5.53099 -0.00986577 5.38571 -0.0129912 5.24973 0.0304053C5.11374 0.0738018 4.99386 0.161549 4.90684 0.281366L0.143376 6.82656C0.0504515 6.95422 0 7.11134 0 7.27308C0 7.43482 0.0504515 7.59195 0.143376 7.71961L4.90684 14.2648C4.99386 14.3846 5.11374 14.4724 5.24973 14.5158C5.38571 14.5592 5.53099 14.556 5.66523 14.5068C5.79947 14.4576 5.91595 14.3648 5.99838 14.2413C6.08081 14.1179 6.12506 13.9699 6.12493 13.8183V10.9166C9.78532 10.998 11.5437 11.7405 12.427 12.5478C13.2667 13.315 13.4205 14.2175 13.5804 15.1629L13.6219 15.4066C13.6525 15.5809 13.7416 15.7373 13.8725 15.8463C14.0034 15.9554 14.167 16.0095 14.3327 15.9986C14.4983 15.9877 14.6545 15.9125 14.7719 15.7871C14.8893 15.6618 14.9597 15.4949 14.97 15.3179C15.0864 13.3194 14.9115 10.4235 13.5906 8.00106C12.3086 5.64988 9.99967 3.84195 6.12493 3.65287V0.727893Z" fill="#2F2F2F"/>
</svg>
