<svg width="20" height="15" viewBox="0 0 20 15" fill="none" xmlns="http://www.w3.org/2000/svg">
<path d="M19.5161 3.07395C19.2058 2.47242 18.7584 1.92731 18.1988 1.46915C17.6389 1.00962 16.9787 0.644437 16.2542 0.393462C15.5029 0.132183 14.6971 -0.001554 13.8835 1.36232e-05C12.7422 1.36232e-05 11.6286 0.261667 10.6609 0.7559C10.4294 0.874129 10.2095 1.00399 10.0011 1.14547C9.79279 1.00399 9.57286 0.874129 9.34135 0.7559C8.37364 0.261667 7.26009 1.36232e-05 6.11876 1.36232e-05C5.2969 1.36232e-05 4.50052 0.131809 3.74811 0.393462C3.02118 0.645424 2.36601 1.00786 1.80345 1.46915C1.24319 1.92679 0.795642 2.47203 0.486167 3.07395C0.164371 3.69998 0 4.36477 0 5.04895C0 5.69436 0.157426 6.3669 0.469961 7.05108C0.731565 7.62284 1.10661 8.21592 1.58583 8.81481C2.34518 9.76258 3.38928 10.751 4.68572 11.7531C6.83412 13.4141 8.96167 14.5615 9.05196 14.608L9.60064 14.9026C9.84372 15.0325 10.1563 15.0325 10.3993 14.9026L10.948 14.608C11.0383 14.5596 13.1635 13.4141 15.3143 11.7531C16.6107 10.751 17.6548 9.76258 18.4141 8.81481C18.8934 8.21592 19.2707 7.62284 19.53 7.05108C19.8426 6.3669 20 5.69436 20 5.04895C20.0023 4.36477 19.8379 3.69998 19.5161 3.07395Z" fill="#747474"/>
</svg>
