<svg width="135" height="83" viewBox="0 0 135 83" fill="none" xmlns="http://www.w3.org/2000/svg">
<path d="M51.7042 80.9127C47.3505 83.7587 41.5427 82.4953 38.7333 78.0803L1.49998 19.6595C-1.3094 15.2491 -0.057801 9.36555 4.29584 6.51954C8.64948 3.67352 14.4573 4.94145 17.2667 9.35186L54.5 67.7727C57.3094 72.1831 56.0578 78.0667 51.7042 80.9127Z" fill="url(#paint0_linear_801_41)"/>
<path d="M133.49 18.5126L118.935 41.6156L107.69 59.4653L96.0047 78.0071C94.2551 80.7846 91.3451 82.336 88.3445 82.4242C88.1133 82.4381 87.8867 82.4381 87.6555 82.4242C84.6549 82.336 81.7449 80.7846 79.9953 78.0071L42.5101 18.5126C39.6817 14.0212 40.9418 8.02946 45.3249 5.13115C46.9113 4.08144 48.6836 3.57981 50.4423 3.57981C53.5426 3.57981 56.5795 5.14509 58.3835 8.01089L88 55.0156L96.4444 41.6156L80.1313 15.7258C77.3029 11.2343 78.563 5.24262 82.9461 2.34431C84.5325 1.2946 86.3048 0.792969 88.0635 0.792969C91.1638 0.792969 94.2007 2.35825 96.0047 5.22405L107.69 23.7658L117.616 8.01089C119.42 5.14509 122.457 3.57981 125.558 3.57981C127.316 3.57981 129.089 4.08144 130.675 5.13115C135.058 8.02946 136.318 14.0212 133.49 18.5126Z" fill="url(#paint1_linear_801_41)"/>
<defs>
<linearGradient id="paint0_linear_801_41" x1="1.97519e-05" y1="43.7172" x2="55.9996" y2="43.7172" gradientUnits="userSpaceOnUse">
<stop stop-color="#0CDFD4"/>
<stop offset="0.5084" stop-color="#3FE39D"/>
<stop offset="1" stop-color="#D3EF00"/>
</linearGradient>
<linearGradient id="paint1_linear_801_41" x1="60.9717" y1="70.0498" x2="100.895" y2="-9.83087" gradientUnits="userSpaceOnUse">
<stop stop-color="#0CDFD4"/>
<stop offset="0.2905" stop-color="#3FE39D"/>
<stop offset="0.7514" stop-color="#C8EE0B"/>
<stop offset="1" stop-color="#D3EF00"/>
</linearGradient>
</defs>
</svg>
