<svg width="231" height="206" viewBox="0 0 231 206" fill="none" xmlns="http://www.w3.org/2000/svg">
<path d="M103.72 16.0287C103.72 16.0287 95.0139 60.8796 44.9524 62.6515C-5.10907 64.4235 -18.8082 136.632 32.0122 150.044C82.8326 163.456 57.7966 198.168 91.2472 205.198C129.266 213.188 129.738 156.942 156.175 156.037C214.524 154.042 244.718 127.32 223.617 105.645C186.576 67.5979 167.493 73.7309 168.788 43.3258C170.084 12.9207 115.271 -20.6112 103.72 16.0287Z" fill="black" fill-opacity="0.3"/>
<path d="M161.13 48.3251L42.293 72.8508C38.5068 73.6322 36.0709 77.3349 36.8523 81.1211L52.1588 155.287C52.9402 159.074 56.643 161.51 60.4292 160.728L179.267 136.202C183.053 135.421 185.489 131.718 184.707 127.932L169.401 53.7658C168.619 49.9796 164.917 47.5437 161.13 48.3251Z" fill="black"/>
<path d="M157.644 57.2327L143.957 60.0573C141.685 60.5262 140.224 62.7478 140.693 65.0196L143.517 78.7062C143.986 80.9779 146.208 82.4395 148.48 81.9706L162.166 79.146C164.438 78.6771 165.899 76.4555 165.431 74.1837L162.606 60.4971C162.137 58.2254 159.915 56.7639 157.644 57.2327Z" fill="white"/>
<path d="M102.861 115.006L56.6805 124.537C56.529 124.568 56.4316 124.717 56.4628 124.868L57.86 131.638C57.8913 131.789 58.0394 131.887 58.1908 131.855L104.371 122.325C104.523 122.293 104.62 122.145 104.589 121.994L103.192 115.224C103.16 115.073 103.012 114.975 102.861 115.006Z" fill="white"/>
<path d="M125.531 125.062L59.5945 138.67C59.4431 138.701 59.3457 138.849 59.3769 139.001L60.7741 145.771C60.8053 145.922 60.9534 146.019 61.1049 145.988L127.042 132.38C127.193 132.349 127.29 132.201 127.259 132.049L125.862 125.28C125.831 125.128 125.683 125.031 125.531 125.062Z" fill="white"/>
<path d="M182.995 155.442C194.007 155.442 202.935 146.515 202.935 135.502C202.935 124.49 194.007 115.562 182.995 115.562C171.982 115.562 163.055 124.49 163.055 135.502C163.055 146.515 171.982 155.442 182.995 155.442Z" fill="black" stroke="white" stroke-width="15" stroke-miterlimit="10"/>
<path d="M190.675 133.83H184.996C184.952 133.83 184.909 133.821 184.868 133.805C184.828 133.788 184.791 133.763 184.76 133.732C184.729 133.701 184.704 133.665 184.688 133.624C184.671 133.583 184.662 133.54 184.662 133.496V127.818C184.662 127.375 184.486 126.951 184.173 126.638C183.86 126.324 183.435 126.148 182.992 126.148C182.549 126.148 182.125 126.324 181.811 126.638C181.498 126.951 181.322 127.375 181.322 127.818V133.496C181.322 133.54 181.314 133.583 181.297 133.624C181.28 133.665 181.255 133.701 181.224 133.732C181.193 133.763 181.157 133.788 181.116 133.805C181.076 133.821 181.032 133.83 180.988 133.83H175.311C174.871 133.834 174.45 134.012 174.14 134.325C173.83 134.637 173.656 135.06 173.656 135.5C173.656 135.94 173.83 136.363 174.14 136.676C174.45 136.988 174.871 137.166 175.311 137.17H180.989C181.077 137.17 181.162 137.205 181.225 137.268C181.288 137.331 181.323 137.416 181.323 137.504V143.182C181.323 143.625 181.499 144.05 181.812 144.363C182.125 144.676 182.55 144.852 182.993 144.852C183.436 144.852 183.86 144.676 184.174 144.363C184.487 144.05 184.663 143.625 184.663 143.182V137.504C184.663 137.416 184.698 137.331 184.761 137.268C184.823 137.205 184.908 137.17 184.997 137.17H190.675C191.115 137.166 191.536 136.988 191.846 136.676C192.156 136.363 192.329 135.94 192.329 135.5C192.329 135.06 192.156 134.637 191.846 134.325C191.536 134.012 191.115 133.834 190.675 133.83Z" fill="white"/>
</svg>
